#Comment line ignore any data following # character 
#Hierarchical Translation and Rotation (.htr) file 
[Header]	
#Header keywords are followed by a single value 
FileType HTR		#Single word string
DataType HTRS		#Translation followed by rotation and scale data
FileVersion 1		#integer
NumSegments 84		#integer
NumFrames 2		#integer
DataFrameRate 30		#integer, data frame rate in this file
EulerRotationOrder ZYX
CalibrationUnits mm
RotationUnits Degrees
GlobalAxisofGravity Y
BoneLengthAxis Y
ScaleFactor 1.00
[SegmentNames&Hierarchy]
#CHILD	PARENT
MASTER GLOBAL
root MASTER
chest root
L_mid_tent01 root
R_mid_tent01 root
spine01 root
Bip01_Neck chest
L_humerus chest
R_humerus chest
weapon_bone chest
Bip01_Head Bip01_Neck
eye_left_bone Bip01_Head
eye_right_bone Bip01_Head
L_forearm L_humerus
L_front_hand L_forearm
L_weapon_bone L_forearm
L_front_hand01_01 L_front_hand
L_front_hand02_01 L_front_hand
L_front_hand03_01 L_front_hand
L_front_hand01_02 L_front_hand01_01
L_front_hand02_02 L_front_hand02_01
L_front_hand03_02 L_front_hand03_01
R_forearm R_humerus
R_front_hand R_forearm
R_weapon_bone R_forearm
R_front_hand01_01 R_front_hand
R_front_hand02_01 R_front_hand
R_front_hand03_01 R_front_hand
R_front_hand01_02 R_front_hand01_01
R_front_hand02_02 R_front_hand02_01
R_front_hand03_02 R_front_hand03_01
null_rope01_connect L_mid_tent01
Rope1_Seg01 null_rope01_connect
Rope1_Seg02 Rope1_Seg01
Rope1_Seg03 Rope1_Seg02
Rope1_Seg04 Rope1_Seg03
Rope1_Seg05 Rope1_Seg04
Rope1_Seg06 Rope1_Seg05
Rope1_Seg07 Rope1_Seg06
Rope1_Seg09 Rope1_Seg07
L_mid_hand01 Rope1_Seg09
L_mid_hand02 Rope1_Seg09
L_mid_hand03 Rope1_Seg09
null_rope02_connect R_mid_tent01
Rope2_Seg01 null_rope02_connect
Rope2_Seg02 Rope2_Seg01
Rope2_Seg03 Rope2_Seg02
Rope2_Seg04 Rope2_Seg03
Rope2_Seg05 Rope2_Seg04
Rope2_Seg06 Rope2_Seg05
Rope2_Seg07 Rope2_Seg06
Rope2_Seg09 Rope2_Seg07
R_mid_hand01 Rope2_Seg09
R_mid_hand02 Rope2_Seg09
R_mid_hand03 Rope2_Seg09
spine02 spine01
spine03 spine02
pelvis spine03
null_rope03_connect pelvis
null_rope04_connect pelvis
Rope3_Seg01 null_rope03_connect
Rope3_Seg02 Rope3_Seg01
Rope3_Seg03 Rope3_Seg02
Rope3_Seg04 Rope3_Seg03
Rope3_Seg05 Rope3_Seg04
Rope3_Seg06 Rope3_Seg05
Rope3_Seg07 Rope3_Seg06
Rope3_Seg08 Rope3_Seg07
Rope3_Seg09 Rope3_Seg08
R_rear_hand01 Rope3_Seg09
R_rear_hand02 Rope3_Seg09
R_rear_hand03 Rope3_Seg09
Rope4_Seg01 null_rope04_connect
Rope4_Seg02 Rope4_Seg01
Rope4_Seg03 Rope4_Seg02
Rope4_Seg04 Rope4_Seg03
Rope4_Seg05 Rope4_Seg04
Rope4_Seg06 Rope4_Seg05
Rope4_Seg07 Rope4_Seg06
Rope4_Seg08 Rope4_Seg07
Rope4_Seg09 Rope4_Seg08
L_rear_hand01 Rope4_Seg09
L_rear_hand02 Rope4_Seg09
L_rear_hand03 Rope4_Seg09
[BasePosition]
#SegmentName Tx, Ty, Tz, Rx, Ry, Rz, BoneLength
MASTER 0.000000 0.000000 0.000000 -90.000000 0.000000 0.000000 10.000000 
root 0.000000 0.000000 0.000000 0.000000 0.000000 0.000000 10.000000 
chest 0.000000 0.000000 0.000000 0.000000 0.000000 0.000000 10.000000 
L_mid_tent01 0.000000 0.000000 0.000000 0.000000 0.000000 0.000000 10.000000 
R_mid_tent01 0.000000 0.000000 0.000000 0.000000 0.000000 0.000000 10.000000 
spine01 0.000000 0.000000 0.000000 0.000000 0.000000 0.000000 10.000000 
Bip01_Neck 0.000000 0.000000 0.000000 0.000000 0.000000 0.000000 10.000000 
L_humerus 0.000000 0.000000 0.000000 0.000000 0.000000 0.000000 10.000000 
R_humerus 0.000000 0.000000 0.000000 0.000000 0.000000 0.000000 10.000000 
weapon_bone 0.000000 0.000000 0.000000 0.000000 0.000000 0.000000 10.000000 
Bip01_Head 0.000000 0.000000 0.000000 0.000000 0.000000 0.000000 10.000000 
eye_left_bone 0.000000 0.000000 0.000000 0.000000 0.000000 0.000000 10.000000 
eye_right_bone 0.000000 0.000000 0.000000 0.000000 0.000000 0.000000 10.000000 
L_forearm 0.000000 0.000000 0.000000 0.000000 0.000000 0.000000 10.000000 
L_front_hand 0.000000 0.000000 0.000000 0.000000 0.000000 0.000000 10.000000 
L_weapon_bone 0.000000 0.000000 0.000000 0.000000 0.000000 0.000000 10.000000 
L_front_hand01_01 0.000000 0.000000 0.000000 0.000000 0.000000 0.000000 10.000000 
L_front_hand02_01 0.000000 0.000000 0.000000 0.000000 0.000000 0.000000 10.000000 
L_front_hand03_01 0.000000 0.000000 0.000000 0.000000 0.000000 0.000000 10.000000 
L_front_hand01_02 0.000000 0.000000 0.000000 0.000000 0.000000 0.000000 10.000000 
L_front_hand02_02 0.000000 0.000000 0.000000 0.000000 0.000000 0.000000 10.000000 
L_front_hand03_02 0.000000 0.000000 0.000000 0.000000 0.000000 0.000000 10.000000 
R_forearm 0.000000 0.000000 0.000000 0.000000 0.000000 0.000000 10.000000 
R_front_hand 0.000000 0.000000 0.000000 0.000000 0.000000 0.000000 10.000000 
R_weapon_bone 0.000000 0.000000 0.000000 0.000000 0.000000 0.000000 10.000000 
R_front_hand01_01 0.000000 0.000000 0.000000 0.000000 0.000000 0.000000 10.000000 
R_front_hand02_01 0.000000 0.000000 0.000000 0.000000 0.000000 0.000000 10.000000 
R_front_hand03_01 0.000000 0.000000 0.000000 0.000000 0.000000 0.000000 10.000000 
R_front_hand01_02 0.000000 0.000000 0.000000 0.000000 0.000000 0.000000 10.000000 
R_front_hand02_02 0.000000 0.000000 0.000000 0.000000 0.000000 0.000000 10.000000 
R_front_hand03_02 0.000000 0.000000 0.000000 0.000000 0.000000 0.000000 10.000000 
null_rope01_connect 0.000000 0.000000 0.000000 0.000000 0.000000 0.000000 10.000000 
Rope1_Seg01 0.000000 0.000000 0.000000 0.000000 0.000000 0.000000 10.000000 
Rope1_Seg02 0.000000 0.000000 0.000000 0.000000 0.000000 0.000000 10.000000 
Rope1_Seg03 0.000000 0.000000 0.000000 0.000000 0.000000 0.000000 10.000000 
Rope1_Seg04 0.000000 0.000000 0.000000 0.000000 0.000000 0.000000 10.000000 
Rope1_Seg05 0.000000 0.000000 0.000000 0.000000 0.000000 0.000000 10.000000 
Rope1_Seg06 0.000000 0.000000 0.000000 0.000000 0.000000 0.000000 10.000000 
Rope1_Seg07 0.000000 0.000000 0.000000 0.000000 0.000000 0.000000 10.000000 
Rope1_Seg09 0.000000 0.000000 0.000000 0.000000 0.000000 0.000000 10.000000 
L_mid_hand01 0.000000 0.000000 0.000000 0.000000 0.000000 0.000000 10.000000 
L_mid_hand02 0.000000 0.000000 0.000000 0.000000 0.000000 0.000000 10.000000 
L_mid_hand03 0.000000 0.000000 0.000000 0.000000 0.000000 0.000000 10.000000 
null_rope02_connect 0.000000 0.000000 0.000000 0.000000 0.000000 0.000000 10.000000 
Rope2_Seg01 0.000000 0.000000 0.000000 0.000000 0.000000 0.000000 10.000000 
Rope2_Seg02 0.000000 0.000000 0.000000 0.000000 0.000000 0.000000 10.000000 
Rope2_Seg03 0.000000 0.000000 0.000000 0.000000 0.000000 0.000000 10.000000 
Rope2_Seg04 0.000000 0.000000 0.000000 0.000000 0.000000 0.000000 10.000000 
Rope2_Seg05 0.000000 0.000000 0.000000 0.000000 0.000000 0.000000 10.000000 
Rope2_Seg06 0.000000 0.000000 0.000000 0.000000 0.000000 0.000000 10.000000 
Rope2_Seg07 0.000000 0.000000 0.000000 0.000000 0.000000 0.000000 10.000000 
Rope2_Seg09 0.000000 0.000000 0.000000 0.000000 0.000000 0.000000 10.000000 
R_mid_hand01 0.000000 0.000000 0.000000 0.000000 0.000000 0.000000 10.000000 
R_mid_hand02 0.000000 0.000000 0.000000 0.000000 0.000000 0.000000 10.000000 
R_mid_hand03 0.000000 0.000000 0.000000 0.000000 0.000000 0.000000 10.000000 
spine02 0.000000 0.000000 0.000000 0.000000 0.000000 0.000000 10.000000 
spine03 0.000000 0.000000 0.000000 0.000000 0.000000 0.000000 10.000000 
pelvis 0.000000 0.000000 0.000000 0.000000 0.000000 0.000000 10.000000 
null_rope03_connect 0.000000 0.000000 0.000000 0.000000 0.000000 0.000000 10.000000 
null_rope04_connect 0.000000 0.000000 0.000000 0.000000 0.000000 0.000000 10.000000 
Rope3_Seg01 0.000000 0.000000 0.000000 0.000000 0.000000 0.000000 10.000000 
Rope3_Seg02 0.000000 0.000000 0.000000 0.000000 0.000000 0.000000 10.000000 
Rope3_Seg03 0.000000 0.000000 0.000000 0.000000 0.000000 0.000000 10.000000 
Rope3_Seg04 0.000000 0.000000 0.000000 0.000000 0.000000 0.000000 10.000000 
Rope3_Seg05 0.000000 0.000000 0.000000 0.000000 0.000000 0.000000 10.000000 
Rope3_Seg06 0.000000 0.000000 0.000000 0.000000 0.000000 0.000000 10.000000 
Rope3_Seg07 0.000000 0.000000 0.000000 0.000000 0.000000 0.000000 10.000000 
Rope3_Seg08 0.000000 0.000000 0.000000 0.000000 0.000000 0.000000 10.000000 
Rope3_Seg09 0.000000 0.000000 0.000000 0.000000 0.000000 0.000000 10.000000 
R_rear_hand01 0.000000 0.000000 0.000000 0.000000 0.000000 0.000000 10.000000 
R_rear_hand02 0.000000 0.000000 0.000000 0.000000 0.000000 0.000000 10.000000 
R_rear_hand03 0.000000 0.000000 0.000000 0.000000 0.000000 0.000000 10.000000 
Rope4_Seg01 0.000000 0.000000 0.000000 0.000000 0.000000 0.000000 10.000000 
Rope4_Seg02 0.000000 0.000000 0.000000 0.000000 0.000000 0.000000 10.000000 
Rope4_Seg03 0.000000 0.000000 0.000000 0.000000 0.000000 0.000000 10.000000 
Rope4_Seg04 0.000000 0.000000 0.000000 0.000000 0.000000 0.000000 10.000000 
Rope4_Seg05 0.000000 0.000000 0.000000 0.000000 0.000000 0.000000 10.000000 
Rope4_Seg06 0.000000 0.000000 0.000000 0.000000 0.000000 0.000000 10.000000 
Rope4_Seg07 0.000000 0.000000 0.000000 0.000000 0.000000 0.000000 10.000000 
Rope4_Seg08 0.000000 0.000000 0.000000 0.000000 0.000000 0.000000 10.000000 
Rope4_Seg09 0.000000 0.000000 0.000000 0.000000 0.000000 0.000000 10.000000 
L_rear_hand01 0.000000 0.000000 0.000000 0.000000 0.000000 0.000000 10.000000 
L_rear_hand02 0.000000 0.000000 0.000000 0.000000 0.000000 0.000000 10.000000 
L_rear_hand03 0.000000 0.000000 0.000000 0.000000 0.000000 0.000000 10.000000 
#Beginning of Data. Separated by tabs
#Fr	Tx	Ty	Tz	Rx	Ry	Rz	SF
[MASTER]
8 -0.000337 1921.556396 70.406662 0.001660 0.001660 0.001660 1922.845825
9 -0.000377 2123.623291 124.449265 0.001660 0.001660 0.001660 2127.266846
[root]
8 -28.403908 -24.834400 1478.547852 -84.031578 -3.836397 -92.640228 1479.029175
9 -30.827045 -30.116280 1484.702271 -83.218544 -3.513982 -92.978554 1485.327515
[chest]
8 -84.512650 -34.090519 0.000000 -2.114128 0.268066 172.057739 91.129311
9 -84.512650 -34.090519 0.000000 -2.095089 0.336266 173.013275 91.129311
[L_mid_tent01]
8 27.299120 22.179174 -249.918701 -6.949138 2.614020 16.354183 252.381699
9 27.299122 22.179178 -249.918716 -7.782478 3.221835 16.212063 252.381714
[R_mid_tent01]
8 23.228794 24.509907 226.238495 174.324173 -5.023048 23.892227 228.744751
9 23.228794 24.509907 226.238495 174.719116 -5.271301 23.940422 228.744751
[spine01]
8 -0.361383 -0.195265 0.000000 0.002061 0.001123 32.843739 0.410763
9 -0.361383 -0.195265 0.000000 0.002060 0.001125 32.735474 0.410763
[Bip01_Neck]
8 165.484543 71.581718 0.000119 176.643677 -1.657967 43.431911 180.302734
9 165.484543 71.581718 0.000119 176.643677 -1.657967 43.431911 180.302734
[L_humerus]
8 -13.983130 -135.272980 -120.471481 -6.963264 64.156639 82.893402 181.680161
9 -13.983130 -135.272980 -120.471481 -7.016393 63.942348 82.833755 181.680161
[R_humerus]
8 -13.983309 -135.273102 125.287651 25.754366 -64.961288 69.966484 184.909012
9 -13.983309 -135.273102 125.287651 25.666449 -64.735741 70.056625 184.909012
[weapon_bone]
8 235.964890 -300.705902 0.000000 0.000000 -89.951546 -128.212341 382.234833
9 235.964890 -300.705902 0.000000 0.000000 -89.951546 -128.212341 382.234833
[Bip01_Head]
8 213.588867 185.312424 16.978897 4.976888 6.734808 -43.852257 283.282867
9 213.648682 185.146255 19.126722 4.972661 4.781313 -43.887043 283.356171
[eye_left_bone]
8 -24.626970 125.451866 -64.772606 0.000000 -90.000000 -99.840431 143.318359
9 -24.626970 125.451866 -64.772606 0.000000 -90.000000 -99.840431 143.318359
[eye_right_bone]
8 -24.626970 125.451866 64.327362 0.000000 -89.965736 80.156380 143.117676
9 -24.626970 125.451866 64.327362 0.000000 -89.980217 80.156387 143.117676
[L_forearm]
8 322.776093 0.000000 -0.000119 0.000428 -0.002308 -111.017822 322.776093
9 322.776093 0.000000 -0.000119 0.000430 -0.002308 -111.089806 322.776093
[L_front_hand]
8 241.149185 -0.042021 -3.300071 -178.667953 -1.835447 -27.422350 241.171753
9 241.149185 -0.042021 -3.300071 -178.667953 -1.835447 -27.422350 241.171753
[L_weapon_bone]
8 156.183838 0.000000 0.000000 0.000014 0.000007 0.000001 156.183838
9 156.183838 0.000000 0.000000 0.000014 0.000007 0.000001 156.183838
[L_front_hand01_01]
8 86.095154 20.947098 -0.655860 -0.320921 -0.506953 70.185371 88.609184
9 86.095154 20.947098 -0.655860 -0.306535 -0.513312 68.646957 88.609184
[L_front_hand02_01]
8 86.935165 -11.437475 24.513514 146.961243 -57.333778 -52.657810 91.046425
9 86.935165 -11.437475 24.513514 145.004044 -56.473930 -50.323570 91.046425
[L_front_hand03_01]
8 86.637497 -14.123976 -20.424902 -146.985443 55.548409 -54.432819 90.126129
9 86.637497 -14.123976 -20.424902 -145.151367 54.687611 -52.198399 90.126129
[L_front_hand01_02]
8 71.020905 -0.000179 0.000030 0.000317 -0.002326 -105.513657 71.020905
9 71.020905 -0.000179 0.000030 0.000316 -0.002326 -105.490036 71.020905
[L_front_hand02_02]
8 71.020927 -0.000119 0.000060 0.000317 -0.002326 -105.513657 71.020927
9 71.020927 -0.000119 0.000060 0.000316 -0.002326 -105.490036 71.020927
[L_front_hand03_02]
8 71.020905 -0.000060 0.000060 0.000317 -0.002326 -105.513657 71.020905
9 71.020905 -0.000060 0.000060 0.000316 -0.002326 -105.490036 71.020905
[R_forearm]
8 322.776428 -0.000060 0.000030 0.201163 0.068003 -109.680046 322.776428
9 322.776428 -0.000060 0.000030 0.201120 0.068131 -109.752617 322.776428
[R_front_hand]
8 238.847015 -0.006795 2.210259 -2.635298 -10.645461 -26.312506 238.857239
9 238.847015 -0.006795 2.210259 -2.635298 -10.645461 -26.312506 238.857239
[R_weapon_bone]
8 155.664093 0.002503 -0.000030 0.003487 0.001180 -90.988930 155.664078
9 155.664093 0.002503 -0.000030 0.003487 0.001180 -90.988930 155.664078
[R_front_hand01_01]
8 87.624611 14.231146 22.918642 -147.670532 -57.619129 53.605923 91.683487
9 87.624611 14.231146 22.918642 -145.613235 -56.747219 51.157963 91.683487
[R_front_hand02_01]
8 89.356956 14.367283 -19.491137 148.052353 55.989693 55.954597 92.579636
9 89.356956 14.367283 -19.491137 146.110458 55.128284 53.601921 92.579636
[R_front_hand03_01]
8 87.286232 -22.307278 -0.143439 0.125269 -0.437058 -70.957245 90.091743
9 87.286232 -22.307278 -0.143439 0.113738 -0.439575 -69.369316 90.091743
[R_front_hand01_02]
8 71.020905 0.000060 0.000119 0.002323 -0.000334 106.381714 71.020905
9 71.020905 0.000060 0.000119 0.002323 -0.000334 106.381714 71.020905
[R_front_hand02_02]
8 71.020844 -0.000030 -0.000119 0.002323 -0.000334 106.381714 71.020836
9 71.020844 -0.000030 -0.000119 0.002323 -0.000334 106.381714 71.020836
[R_front_hand03_02]
8 71.020905 0.000000 0.000030 0.002323 -0.000334 106.381714 71.020905
9 71.020905 0.000000 0.000030 0.002323 -0.000334 106.381714 71.020905
[null_rope01_connect]
8 328.732483 0.000000 -0.000238 -113.121368 -86.437561 -169.614227 328.732483
9 328.732483 0.000000 -0.000238 -111.215065 -85.741676 -171.796875 328.732483
[Rope1_Seg01]
8 -0.000009 0.000029 0.000036 -15.099885 9.752058 -80.864151 0.000047
9 -0.000010 0.000028 0.000041 -14.745895 10.825253 -84.917160 0.000050
[Rope1_Seg02]
8 139.999863 -0.000179 0.000000 4.846800 4.494877 -9.857518 139.999863
9 139.999863 -0.000179 0.000000 4.992050 4.842823 -9.584758 139.999863
[Rope1_Seg03]
8 139.999924 0.000060 -0.000060 12.469286 3.549421 -11.117769 139.999924
9 139.999924 0.000060 -0.000060 15.496892 3.909601 -11.142597 139.999924
[Rope1_Seg04]
8 139.999924 -0.000060 -0.000119 48.101913 -0.678929 -14.936915 139.999924
9 139.999924 -0.000060 -0.000119 68.217102 -0.994131 -15.791829 139.999924
[Rope1_Seg05]
8 139.999832 0.000119 -0.000060 16.913622 -0.459048 -4.437714 139.999832
9 139.999832 0.000119 -0.000060 12.090249 0.393671 -3.418633 139.999832
[Rope1_Seg06]
8 139.999954 0.000119 -0.000060 -52.833988 8.552199 -2.614496 139.999954
9 139.999954 0.000119 -0.000060 -106.610527 11.366796 -4.573451 139.999954
[Rope1_Seg07]
8 139.999985 0.000060 0.000000 -47.226978 4.562352 2.625638 139.999985
9 139.999985 0.000060 0.000000 -27.519966 1.130594 6.373694 139.999985
[Rope1_Seg09]
8 121.602913 0.000119 -0.000089 -89.793175 -1.359789 0.847147 121.602913
9 121.602913 0.000119 -0.000089 -89.793175 -1.359789 0.847147 121.602913
[L_mid_hand01]
8 103.859421 1.038730 8.195221 109.437721 -41.837845 -13.776228 104.187431
9 103.859421 1.038730 8.195221 109.056190 -40.604698 -13.201404 104.187431
[L_mid_hand02]
8 105.572853 -4.139662 -10.864139 -147.395187 32.186741 -39.191986 106.211075
9 105.572853 -4.139662 -10.864139 -146.713593 31.476528 -37.902313 106.211075
[L_mid_hand03]
8 104.641464 17.579376 -3.913581 -13.988547 12.638442 45.197113 106.179977
9 104.641464 17.579376 -3.913581 -14.267232 12.322316 43.898403 106.179977
[null_rope02_connect]
8 328.732849 0.000179 -0.000119 -117.591736 85.024994 -8.193258 328.732849
9 328.732849 0.000179 -0.000119 -130.524582 84.453445 -20.844557 328.732849
[Rope2_Seg01]
8 0.000047 0.000117 0.000000 89.754875 -3.020146 -97.186615 0.000126
9 0.000048 0.000112 0.000000 87.157799 -4.410484 -92.270027 0.000122
[Rope2_Seg02]
8 139.999741 -0.000060 -0.000119 -0.178657 8.937256 -4.274584 139.999756
9 139.999741 -0.000060 -0.000119 1.030660 7.802782 -5.209517 139.999756
[Rope2_Seg03]
8 140.000107 0.000030 0.000000 -0.161454 10.932630 -5.286997 140.000107
9 140.000107 0.000030 0.000000 2.324795 9.083673 -6.407180 140.000107
[Rope2_Seg04]
8 139.999802 0.000000 -0.000060 -1.908850 17.376097 -7.831164 139.999802
9 139.999802 0.000000 -0.000060 8.948333 14.519297 -10.407171 139.999802
[Rope2_Seg05]
8 139.999985 -0.000060 0.000119 -5.723236 13.403232 -5.928298 139.999985
9 139.999985 -0.000060 0.000119 37.667492 8.178255 -8.867063 139.999985
[Rope2_Seg06]
8 139.999893 -0.000030 -0.000119 20.964787 -4.101913 -0.606572 139.999893
9 139.999893 -0.000030 -0.000119 -18.045845 -2.814293 5.629869 139.999893
[Rope2_Seg07]
8 139.999893 0.000060 -0.000060 -3.516924 -15.475414 8.240438 139.999893
9 139.999893 0.000060 -0.000060 -16.487415 -8.925041 12.260676 139.999893
[Rope2_Seg09]
8 121.338966 0.000089 -0.000060 33.793236 -1.359788 -0.847141 121.338966
9 121.338966 0.000089 -0.000060 33.793236 -1.359788 -0.847141 121.338966
[R_mid_hand01]
8 104.680779 11.144459 -10.335981 -30.935734 37.970642 48.479172 105.778534
9 104.680779 11.144459 -10.335981 -33.085686 36.191681 44.913227 105.778534
[R_mid_hand02]
8 104.070427 2.443552 8.231699 65.980988 -52.455704 19.994473 104.424065
9 104.070427 2.443552 8.231699 67.611252 -49.370300 17.897308 104.424065
[R_mid_hand03]
8 106.028137 -11.221827 -5.996406 -172.374313 13.894678 -58.153652 106.788818
9 106.028137 -11.221827 -5.996406 -171.571182 13.427422 -54.737041 106.788818
[spine02]
8 129.756927 0.001550 0.000119 0.520186 -4.026230 -15.229295 129.756927
9 129.756927 0.001550 0.000119 0.528786 -4.025093 -15.334446 129.756927
[spine03]
8 78.614029 0.081599 -4.899009 1.991017 3.784849 17.911835 78.766563
9 78.614021 0.081594 -4.899008 1.998228 3.782857 17.982183 78.766556
[pelvis]
8 169.435242 0.051022 0.000000 -0.069921 -0.177898 17.003090 169.435257
9 169.435242 0.051022 0.000000 -0.070130 -0.177815 17.138117 169.435257
[null_rope03_connect]
8 -1.257226 -2.466202 137.391083 -19.373735 -82.344093 60.822720 137.418976
9 -1.257226 -2.466202 137.391083 -19.565491 -81.472488 60.745476 137.418976
[null_rope04_connect]
8 -1.259640 -2.480268 -137.844437 -19.373735 -82.344093 60.822720 137.872513
9 -1.259640 -2.480268 -137.844437 -19.565491 -81.472488 60.745476 137.872513
[Rope3_Seg01]
8 0.000010 0.000038 -0.000114 -132.961319 14.443110 -86.309090 0.000121
9 0.000010 0.000038 -0.000114 -133.142593 16.787937 -84.994026 0.000121
[Rope3_Seg02]
8 139.999924 -0.000119 0.000060 0.012027 -0.398923 -0.136864 139.999924
9 139.999924 -0.000119 0.000060 0.131315 0.510792 0.239639 139.999924
[Rope3_Seg03]
8 139.999924 -0.000119 0.000119 0.002247 -0.443447 -0.151667 139.999924
9 139.999924 -0.000119 0.000119 0.131563 0.570119 0.264441 139.999924
[Rope3_Seg04]
8 139.999924 0.000119 0.000000 -0.382764 -0.857954 1.794997 139.999924
9 139.999924 0.000119 0.000000 -0.217370 0.749099 2.819636 139.999924
[Rope3_Seg05]
8 139.999924 -0.000238 0.000060 0.143260 -0.472192 -0.755631 139.999924
9 139.999924 -0.000238 0.000060 0.331793 0.729252 -0.194062 139.999924
[Rope3_Seg06]
8 139.999893 -0.000119 -0.000060 1.073353 0.833558 -7.320602 139.999893
9 139.999893 -0.000119 -0.000060 1.445695 0.248658 -8.941877 139.999893
[Rope3_Seg07]
8 139.999771 0.000060 -0.000119 0.707632 0.599132 -6.115564 139.999771
9 139.999771 0.000060 -0.000119 0.861155 -0.030988 -7.516674 139.999771
[Rope3_Seg08]
8 139.999985 -0.000060 0.000000 0.514003 0.235120 -3.509312 139.999985
9 139.999985 -0.000060 0.000000 0.535925 0.005972 -4.094254 139.999985
[Rope3_Seg09]
8 90.185997 -0.000179 -0.000060 89.793228 -1.359877 -0.847183 90.185997
9 90.185997 -0.000179 -0.000060 89.793228 -1.359877 -0.847183 90.185997
[R_rear_hand01]
8 103.366196 -6.073594 -10.757982 -168.239929 21.836601 -50.169044 104.101845
9 103.366196 -6.073594 -10.757982 -166.818848 21.039259 -46.280426 104.101845
[R_rear_hand02]
8 100.509819 12.039542 -7.992327 -26.552095 29.320543 47.442066 101.543350
9 100.509819 12.039542 -7.992327 -28.339693 27.613865 43.697414 101.543350
[R_rear_hand03]
8 101.539970 5.215704 5.435467 81.061974 -50.389538 10.772509 101.819031
9 101.539970 5.215704 5.435467 81.685280 -46.725750 9.939899 101.819031
[Rope4_Seg01]
8 0.000010 0.000038 -0.000114 48.957825 5.290118 -66.153526 0.000121
9 0.000010 0.000038 -0.000114 48.866077 4.194997 -72.039833 0.000121
[Rope4_Seg02]
8 139.999985 0.000060 0.000119 4.446412 -4.227992 -9.384660 139.999985
9 139.999985 0.000060 0.000119 4.042984 -2.533975 -9.612601 139.999985
[Rope4_Seg03]
8 139.999924 0.000000 -0.000238 3.806156 -6.107237 -11.373839 139.999924
9 139.999924 0.000000 -0.000238 3.308038 -3.605263 -10.885044 139.999924
[Rope4_Seg04]
8 139.999985 0.000000 0.000119 3.739722 -8.852764 -19.128246 139.999985
9 139.999985 0.000000 0.000119 3.172864 -4.176103 -17.974716 139.999985
[Rope4_Seg05]
8 139.999802 -0.000060 -0.000119 0.251866 -6.704119 -8.835267 139.999802
9 139.999802 -0.000060 -0.000119 0.347947 -4.150877 -6.130758 139.999802
[Rope4_Seg06]
8 139.999924 0.000000 0.000060 1.175942 -1.144661 9.626562 139.999924
9 139.999924 0.000000 0.000060 0.145046 -2.914026 10.938204 139.999924
[Rope4_Seg07]
8 139.999802 0.000000 0.000000 0.706829 -0.110659 10.133252 139.999802
9 139.999802 0.000000 0.000000 -0.117571 -2.242032 9.874813 139.999802
[Rope4_Seg08]
8 139.999924 0.000000 0.000119 -1.402710 -0.846696 3.870784 139.999924
9 139.999924 0.000000 0.000119 -1.619484 -1.608810 4.066664 139.999924
[Rope4_Seg09]
8 90.185791 0.000060 0.000060 -135.617828 2.228885 0.850567 90.185791
9 90.185791 0.000060 0.000060 -135.617828 2.228885 0.850567 90.185791
[L_rear_hand01]
8 101.696655 -8.392275 -7.654577 -31.429779 -23.932976 143.406311 102.329041
9 101.696655 -8.392275 -7.654577 -30.719042 -24.879360 141.681366 102.329041
[L_rear_hand02]
8 102.726799 -1.568258 5.773216 82.628304 39.414528 171.441589 102.900848
9 102.726799 -1.568258 5.773216 82.428490 41.230476 171.131027 102.900848
[L_rear_hand03]
8 104.552910 9.721220 -10.420293 -164.198181 -19.188400 -141.332703 105.519653
9 104.552910 9.721220 -10.420293 -164.822937 -19.676041 -139.457672 105.519653
